<?xml version="1.0" standalone="no"?>
<!DOCTYPE svg PUBLIC "-//W3C//DTD SVG 20010904//EN"
 "http://www.w3.org/TR/2001/REC-SVG-20010904/DTD/svg10.dtd">
<svg version="1.0" xmlns="http://www.w3.org/2000/svg"
 width="700.000000pt" height="700.000000pt" viewBox="0 0 700.000000 700.000000"
 preserveAspectRatio="xMidYMid meet">
    <metadata>Created by Erich</metadata>
    <g transform="translate(0.000000,700.000000) scale(0.100000,-0.100000)"fill="#000000" stroke="none">
        <path d="M3457 6994 c-1 -1 -70 -4 -153 -7 -83 -4 -157 -8 -165 -11 -8 -3 -42
        -7 -76 -11 -176 -16 -475 -85 -689 -159 -643 -221 -1194 -615 -1616 -1158
        -287 -368 -506 -811 -628 -1271 -16 -61 -32 -125 -35 -142 -2 -16 -7 -41 -10
        -55 -32 -161 -32 -163 -41 -248 -3 -37 -8 -70 -10 -73 -4 -8 -17 -259 -17
        -354 0 -95 13 -356 18 -365 2 -4 7 -33 10 -66 34 -341 165 -775 340 -1125 207
        -415 480 -773 814 -1069 41 -36 79 -69 85 -75 53 -48 279 -207 401 -282 338
        -208 785 -382 1155 -449 14 -2 36 -7 50 -9 40 -8 62 -12 113 -19 27 -4 56 -9
        65 -11 15 -2 99 -10 227 -21 52 -4 387 -4 445 0 74 6 183 17 210 21 14 2 56 9
        94 15 580 91 1111 322 1586 688 47 37 87 69 90 72 3 3 34 30 70 60 72 62 219
        207 295 291 225 249 390 494 540 804 165 338 265 664 320 1040 4 22 8 51 10
        65 2 14 7 61 10 105 4 44 8 96 11 115 5 43 4 387 -1 455 -8 98 -23 232 -31
        275 -2 14 -7 41 -10 60 -22 141 -87 377 -146 530 -29 77 -21 76 -148 19 -63
        -28 -157 -71 -208 -95 -52 -24 -95 -44 -97 -44 -2 0 -39 -16 -82 -36 -43 -20
        -278 -127 -523 -239 -245 -111 -474 -216 -510 -232 -36 -17 -87 -40 -115 -53
        -133 -60 -333 -151 -432 -196 -63 -29 -467 -213 -573 -261 -36 -16 -76 -34
        -89 -39 l-25 -10 25 -18 c13 -10 114 -83 224 -162 110 -80 259 -187 330 -240
        72 -52 190 -137 263 -190 l132 -96 163 72 c89 40 196 88 237 107 229 105 485
        220 507 227 19 6 20 3 17 -46 -20 -333 -141 -633 -390 -969 -305 -412 -796
        -773 -1256 -924 -139 -45 -339 -88 -484 -102 -102 -10 -431 -10 -509 0 -201
        27 -310 49 -467 98 -563 173 -1062 569 -1362 1079 -63 107 -160 314 -198 420
        -34 95 -95 328 -104 397 -3 27 -8 50 -9 53 -3 5 -8 53 -21 180 -5 46 -5 337 0
        375 2 17 7 57 10 91 7 65 11 90 27 174 6 30 12 64 14 75 12 74 76 278 128 406
        142 348 385 687 650 907 38 31 81 67 95 80 15 13 83 60 152 106 280 186 603
        316 925 370 159 27 216 31 430 31 219 -1 353 -15 525 -56 47 -11 92 -22 100
        -24 53 -12 200 -64 290 -102 178 -76 371 -192 348 -209 -7 -6 -71 -36 -143
        -69 -71 -32 -161 -73 -200 -90 -38 -18 -245 -112 -460 -210 -214 -98 -419
        -191 -455 -207 -91 -42 -141 -65 -335 -153 -93 -42 -199 -91 -235 -107 -36
        -17 -191 -88 -345 -158 -288 -131 -347 -158 -473 -216 -41 -19 -75 -34 -77
        -34 -2 0 -60 -27 -129 -60 -123 -58 -126 -60 -127 -92 0 -18 -2 -42 -3 -53 -2
        -11 -6 -51 -10 -90 -4 -38 -9 -83 -11 -100 -6 -47 -14 -115 -20 -175 -11 -116
        -16 -156 -20 -180 -2 -14 -7 -59 -11 -100 -3 -41 -7 -82 -9 -90 -2 -13 -7 -54
        -20 -190 -12 -122 -17 -157 -21 -172 -3 -10 -3 -18 -1 -18 6 0 101 42 187 82
        36 17 90 42 120 55 91 41 140 63 250 113 58 26 128 58 155 70 114 52 405 185
        473 216 40 19 74 34 77 34 2 0 56 25 120 55 65 30 119 55 121 55 2 0 38 16 81
        36 43 20 105 49 138 64 33 15 83 38 110 50 28 13 77 35 110 50 33 15 83 37
        110 50 78 35 375 170 430 195 28 13 73 33 100 46 102 45 251 113 363 165 40
        19 74 34 77 34 2 0 48 21 102 46 53 25 185 86 293 134 107 48 231 104 275 125
        44 20 120 55 170 77 49 22 112 50 140 63 27 13 79 37 115 53 36 16 100 46 143
        66 44 20 80 36 82 36 2 0 56 25 120 55 65 30 118 55 120 55 2 0 36 15 77 34
        40 19 104 48 141 65 l69 30 -42 78 c-128 238 -327 499 -545 718 -311 310 -691
        569 -1070 729 -61 26 -119 51 -130 56 -92 42 -400 132 -570 166 -11 2 -31 6
        -45 9 -14 2 -47 7 -75 11 -27 3 -52 8 -56 9 -3 2 -39 7 -80 11 -40 3 -77 8
        -80 10 -8 5 -386 22 -392 18z"/>
    </g>
</svg>
