<svg width="366" height="366" viewBox="0 0 366 366" fill="none" xmlns="http://www.w3.org/2000/svg">
    <path d="M11.0479 123.117C-14.2527 194.839 8.60783 275.772 68.2198 324.784C141.209 382.867 242.678 378.538 309.131 314.656C372.014 254.206 374.041 167.839 353.314 121.133L208.544 187.051L259.343 223.9L307.586 202.158C308.872 243.944 261.374 295.637 211.966 306.813C152.188 320.335 92.471 290.715 67.422 235.121C42.6047 180.041 60.5976 113.885 109.667 79.2427C158.213 44.9695 217.598 52.3878 250.749 76.381L94.3864 147.654L87.513 210.825L342.027 95.1762C317.561 46.908 258.794 -0.228543 181.475 0.352298C104.229 0.932574 36.9421 49.7119 11.0479 123.117Z" fill="#38AEEB"/>
</svg>